<mxfile host="app.diagrams.net" agent="Mozilla/5.0 (Windows NT 10.0; Win64; x64) AppleWebKit/537.36 (KHTML, like Gecko) Chrome/132.0.0.0 Safari/537.36" version="26.0.10">
  <diagram id="C5RBs43oDa-KdzZeNtuy" name="Page-1">
    <mxGraphModel dx="1400" dy="804" grid="1" gridSize="10" guides="1" tooltips="1" connect="1" arrows="1" fold="1" page="1" pageScale="1" pageWidth="827" pageHeight="1169" math="0" shadow="0">
      <root>
        <mxCell id="WIyWlLk6GJQsqaUBKTNV-0" />
        <mxCell id="WIyWlLk6GJQsqaUBKTNV-1" parent="WIyWlLk6GJQsqaUBKTNV-0" />
        <mxCell id="QTb41oFIG2-0rizOmiGW-2" value="" style="edgeStyle=orthogonalEdgeStyle;rounded=0;orthogonalLoop=1;jettySize=auto;html=1;" edge="1" parent="WIyWlLk6GJQsqaUBKTNV-1" source="QTb41oFIG2-0rizOmiGW-0" target="QTb41oFIG2-0rizOmiGW-1">
          <mxGeometry relative="1" as="geometry" />
        </mxCell>
        <mxCell id="QTb41oFIG2-0rizOmiGW-0" value="User" style="shape=umlActor;verticalLabelPosition=bottom;verticalAlign=top;html=1;outlineConnect=0;" vertex="1" parent="WIyWlLk6GJQsqaUBKTNV-1">
          <mxGeometry x="399" y="80" width="30" height="60" as="geometry" />
        </mxCell>
        <mxCell id="QTb41oFIG2-0rizOmiGW-4" value="" style="edgeStyle=orthogonalEdgeStyle;rounded=0;orthogonalLoop=1;jettySize=auto;html=1;" edge="1" parent="WIyWlLk6GJQsqaUBKTNV-1" source="QTb41oFIG2-0rizOmiGW-1" target="QTb41oFIG2-0rizOmiGW-3">
          <mxGeometry relative="1" as="geometry" />
        </mxCell>
        <mxCell id="QTb41oFIG2-0rizOmiGW-1" value="&lt;div&gt;&lt;br&gt;&lt;/div&gt;&lt;div&gt;Memulai App&lt;/div&gt;" style="rounded=1;whiteSpace=wrap;html=1;verticalAlign=top;" vertex="1" parent="WIyWlLk6GJQsqaUBKTNV-1">
          <mxGeometry x="354" y="180" width="120" height="60" as="geometry" />
        </mxCell>
        <mxCell id="QTb41oFIG2-0rizOmiGW-15" style="edgeStyle=orthogonalEdgeStyle;rounded=0;orthogonalLoop=1;jettySize=auto;html=1;exitX=0.5;exitY=1;exitDx=0;exitDy=0;entryX=0.5;entryY=0;entryDx=0;entryDy=0;" edge="1" parent="WIyWlLk6GJQsqaUBKTNV-1" source="QTb41oFIG2-0rizOmiGW-3" target="QTb41oFIG2-0rizOmiGW-5">
          <mxGeometry relative="1" as="geometry" />
        </mxCell>
        <mxCell id="QTb41oFIG2-0rizOmiGW-16" style="edgeStyle=orthogonalEdgeStyle;rounded=0;orthogonalLoop=1;jettySize=auto;html=1;exitX=0.5;exitY=1;exitDx=0;exitDy=0;entryX=0.5;entryY=0;entryDx=0;entryDy=0;" edge="1" parent="WIyWlLk6GJQsqaUBKTNV-1" source="QTb41oFIG2-0rizOmiGW-3" target="QTb41oFIG2-0rizOmiGW-7">
          <mxGeometry relative="1" as="geometry" />
        </mxCell>
        <mxCell id="QTb41oFIG2-0rizOmiGW-17" style="edgeStyle=orthogonalEdgeStyle;rounded=0;orthogonalLoop=1;jettySize=auto;html=1;exitX=0.5;exitY=1;exitDx=0;exitDy=0;entryX=0.5;entryY=0;entryDx=0;entryDy=0;" edge="1" parent="WIyWlLk6GJQsqaUBKTNV-1" source="QTb41oFIG2-0rizOmiGW-3" target="QTb41oFIG2-0rizOmiGW-10">
          <mxGeometry relative="1" as="geometry" />
        </mxCell>
        <mxCell id="QTb41oFIG2-0rizOmiGW-18" style="edgeStyle=orthogonalEdgeStyle;rounded=0;orthogonalLoop=1;jettySize=auto;html=1;exitX=0.5;exitY=1;exitDx=0;exitDy=0;entryX=0.5;entryY=0;entryDx=0;entryDy=0;" edge="1" parent="WIyWlLk6GJQsqaUBKTNV-1" source="QTb41oFIG2-0rizOmiGW-3" target="QTb41oFIG2-0rizOmiGW-9">
          <mxGeometry relative="1" as="geometry" />
        </mxCell>
        <mxCell id="QTb41oFIG2-0rizOmiGW-19" style="edgeStyle=orthogonalEdgeStyle;rounded=0;orthogonalLoop=1;jettySize=auto;html=1;exitX=0.5;exitY=1;exitDx=0;exitDy=0;entryX=0.5;entryY=0;entryDx=0;entryDy=0;" edge="1" parent="WIyWlLk6GJQsqaUBKTNV-1" source="QTb41oFIG2-0rizOmiGW-3" target="QTb41oFIG2-0rizOmiGW-8">
          <mxGeometry relative="1" as="geometry" />
        </mxCell>
        <mxCell id="QTb41oFIG2-0rizOmiGW-3" value="&lt;div&gt;&lt;br&gt;&lt;/div&gt;&lt;div&gt;Display Menu&lt;/div&gt;" style="whiteSpace=wrap;html=1;verticalAlign=top;rounded=1;" vertex="1" parent="WIyWlLk6GJQsqaUBKTNV-1">
          <mxGeometry x="354" y="260" width="120" height="60" as="geometry" />
        </mxCell>
        <mxCell id="QTb41oFIG2-0rizOmiGW-23" value="" style="edgeStyle=orthogonalEdgeStyle;rounded=0;orthogonalLoop=1;jettySize=auto;html=1;" edge="1" parent="WIyWlLk6GJQsqaUBKTNV-1" source="QTb41oFIG2-0rizOmiGW-5" target="QTb41oFIG2-0rizOmiGW-22">
          <mxGeometry relative="1" as="geometry" />
        </mxCell>
        <mxCell id="QTb41oFIG2-0rizOmiGW-54" style="edgeStyle=orthogonalEdgeStyle;rounded=0;orthogonalLoop=1;jettySize=auto;html=1;exitX=0.5;exitY=0;exitDx=0;exitDy=0;entryX=0.5;entryY=1;entryDx=0;entryDy=0;" edge="1" parent="WIyWlLk6GJQsqaUBKTNV-1" source="QTb41oFIG2-0rizOmiGW-5" target="QTb41oFIG2-0rizOmiGW-3">
          <mxGeometry relative="1" as="geometry" />
        </mxCell>
        <mxCell id="QTb41oFIG2-0rizOmiGW-5" value="Menu 1" style="shape=hexagon;perimeter=hexagonPerimeter2;whiteSpace=wrap;html=1;fixedSize=1;" vertex="1" parent="WIyWlLk6GJQsqaUBKTNV-1">
          <mxGeometry x="40" y="370" width="140" height="40" as="geometry" />
        </mxCell>
        <mxCell id="QTb41oFIG2-0rizOmiGW-30" value="" style="edgeStyle=orthogonalEdgeStyle;rounded=0;orthogonalLoop=1;jettySize=auto;html=1;" edge="1" parent="WIyWlLk6GJQsqaUBKTNV-1" source="QTb41oFIG2-0rizOmiGW-7" target="QTb41oFIG2-0rizOmiGW-29">
          <mxGeometry relative="1" as="geometry" />
        </mxCell>
        <mxCell id="QTb41oFIG2-0rizOmiGW-55" style="edgeStyle=orthogonalEdgeStyle;rounded=0;orthogonalLoop=1;jettySize=auto;html=1;exitX=0.5;exitY=0;exitDx=0;exitDy=0;" edge="1" parent="WIyWlLk6GJQsqaUBKTNV-1" source="QTb41oFIG2-0rizOmiGW-7" target="QTb41oFIG2-0rizOmiGW-3">
          <mxGeometry relative="1" as="geometry" />
        </mxCell>
        <mxCell id="QTb41oFIG2-0rizOmiGW-7" value="Menu 2" style="shape=hexagon;perimeter=hexagonPerimeter2;whiteSpace=wrap;html=1;fixedSize=1;" vertex="1" parent="WIyWlLk6GJQsqaUBKTNV-1">
          <mxGeometry x="200" y="370" width="140" height="40" as="geometry" />
        </mxCell>
        <mxCell id="QTb41oFIG2-0rizOmiGW-21" value="" style="edgeStyle=orthogonalEdgeStyle;rounded=0;orthogonalLoop=1;jettySize=auto;html=1;" edge="1" parent="WIyWlLk6GJQsqaUBKTNV-1" source="QTb41oFIG2-0rizOmiGW-8" target="QTb41oFIG2-0rizOmiGW-20">
          <mxGeometry relative="1" as="geometry" />
        </mxCell>
        <mxCell id="QTb41oFIG2-0rizOmiGW-58" style="edgeStyle=orthogonalEdgeStyle;rounded=0;orthogonalLoop=1;jettySize=auto;html=1;exitX=0.5;exitY=0;exitDx=0;exitDy=0;entryX=0.5;entryY=1;entryDx=0;entryDy=0;" edge="1" parent="WIyWlLk6GJQsqaUBKTNV-1" source="QTb41oFIG2-0rizOmiGW-8" target="QTb41oFIG2-0rizOmiGW-3">
          <mxGeometry relative="1" as="geometry" />
        </mxCell>
        <mxCell id="QTb41oFIG2-0rizOmiGW-8" value="Menu 5" style="shape=hexagon;perimeter=hexagonPerimeter2;whiteSpace=wrap;html=1;fixedSize=1;" vertex="1" parent="WIyWlLk6GJQsqaUBKTNV-1">
          <mxGeometry x="660" y="370" width="140" height="40" as="geometry" />
        </mxCell>
        <mxCell id="QTb41oFIG2-0rizOmiGW-57" style="edgeStyle=orthogonalEdgeStyle;rounded=0;orthogonalLoop=1;jettySize=auto;html=1;exitX=0.5;exitY=0;exitDx=0;exitDy=0;" edge="1" parent="WIyWlLk6GJQsqaUBKTNV-1" source="QTb41oFIG2-0rizOmiGW-9" target="QTb41oFIG2-0rizOmiGW-3">
          <mxGeometry relative="1" as="geometry" />
        </mxCell>
        <mxCell id="QTb41oFIG2-0rizOmiGW-61" value="" style="edgeStyle=orthogonalEdgeStyle;rounded=0;orthogonalLoop=1;jettySize=auto;html=1;" edge="1" parent="WIyWlLk6GJQsqaUBKTNV-1" source="QTb41oFIG2-0rizOmiGW-9" target="QTb41oFIG2-0rizOmiGW-60">
          <mxGeometry relative="1" as="geometry" />
        </mxCell>
        <mxCell id="QTb41oFIG2-0rizOmiGW-9" value="Menu 4" style="shape=hexagon;perimeter=hexagonPerimeter2;whiteSpace=wrap;html=1;fixedSize=1;" vertex="1" parent="WIyWlLk6GJQsqaUBKTNV-1">
          <mxGeometry x="510" y="370" width="140" height="40" as="geometry" />
        </mxCell>
        <mxCell id="QTb41oFIG2-0rizOmiGW-35" value="" style="edgeStyle=orthogonalEdgeStyle;rounded=0;orthogonalLoop=1;jettySize=auto;html=1;" edge="1" parent="WIyWlLk6GJQsqaUBKTNV-1" source="QTb41oFIG2-0rizOmiGW-10" target="QTb41oFIG2-0rizOmiGW-34">
          <mxGeometry relative="1" as="geometry" />
        </mxCell>
        <mxCell id="QTb41oFIG2-0rizOmiGW-56" style="edgeStyle=orthogonalEdgeStyle;rounded=0;orthogonalLoop=1;jettySize=auto;html=1;exitX=0.5;exitY=0;exitDx=0;exitDy=0;entryX=0.5;entryY=1;entryDx=0;entryDy=0;" edge="1" parent="WIyWlLk6GJQsqaUBKTNV-1" source="QTb41oFIG2-0rizOmiGW-10" target="QTb41oFIG2-0rizOmiGW-3">
          <mxGeometry relative="1" as="geometry" />
        </mxCell>
        <mxCell id="QTb41oFIG2-0rizOmiGW-10" value="Menu 3" style="shape=hexagon;perimeter=hexagonPerimeter2;whiteSpace=wrap;html=1;fixedSize=1;" vertex="1" parent="WIyWlLk6GJQsqaUBKTNV-1">
          <mxGeometry x="354" y="370" width="140" height="40" as="geometry" />
        </mxCell>
        <mxCell id="QTb41oFIG2-0rizOmiGW-20" value="Keluar App" style="rounded=1;whiteSpace=wrap;html=1;" vertex="1" parent="WIyWlLk6GJQsqaUBKTNV-1">
          <mxGeometry x="670" y="480" width="120" height="60" as="geometry" />
        </mxCell>
        <mxCell id="QTb41oFIG2-0rizOmiGW-25" value="" style="edgeStyle=orthogonalEdgeStyle;rounded=0;orthogonalLoop=1;jettySize=auto;html=1;" edge="1" parent="WIyWlLk6GJQsqaUBKTNV-1" source="QTb41oFIG2-0rizOmiGW-22" target="QTb41oFIG2-0rizOmiGW-24">
          <mxGeometry relative="1" as="geometry" />
        </mxCell>
        <mxCell id="QTb41oFIG2-0rizOmiGW-22" value="Menampilkan&lt;div&gt;Daftar Kursus&lt;/div&gt;" style="rounded=1;whiteSpace=wrap;html=1;" vertex="1" parent="WIyWlLk6GJQsqaUBKTNV-1">
          <mxGeometry x="50" y="440" width="120" height="60" as="geometry" />
        </mxCell>
        <mxCell id="QTb41oFIG2-0rizOmiGW-27" style="edgeStyle=orthogonalEdgeStyle;rounded=0;orthogonalLoop=1;jettySize=auto;html=1;exitX=0.5;exitY=1;exitDx=0;exitDy=0;entryX=1;entryY=0.5;entryDx=0;entryDy=0;" edge="1" parent="WIyWlLk6GJQsqaUBKTNV-1" source="QTb41oFIG2-0rizOmiGW-24" target="QTb41oFIG2-0rizOmiGW-3">
          <mxGeometry relative="1" as="geometry">
            <Array as="points">
              <mxPoint x="110" y="870" />
              <mxPoint x="810" y="870" />
              <mxPoint x="810" y="290" />
            </Array>
          </mxGeometry>
        </mxCell>
        <mxCell id="QTb41oFIG2-0rizOmiGW-24" value="User Mendapat&lt;div&gt;10 point&lt;/div&gt;" style="whiteSpace=wrap;html=1;rounded=1;" vertex="1" parent="WIyWlLk6GJQsqaUBKTNV-1">
          <mxGeometry x="50" y="630" width="120" height="60" as="geometry" />
        </mxCell>
        <mxCell id="QTb41oFIG2-0rizOmiGW-26" value="User Memilih Kursus" style="text;html=1;align=center;verticalAlign=middle;whiteSpace=wrap;rounded=0;" vertex="1" parent="WIyWlLk6GJQsqaUBKTNV-1">
          <mxGeometry x="10" y="550" width="110" height="30" as="geometry" />
        </mxCell>
        <mxCell id="QTb41oFIG2-0rizOmiGW-28" value="Kembali Ke Display Menu" style="text;html=1;align=center;verticalAlign=middle;whiteSpace=wrap;rounded=0;" vertex="1" parent="WIyWlLk6GJQsqaUBKTNV-1">
          <mxGeometry x="384" y="880" width="120" height="30" as="geometry" />
        </mxCell>
        <mxCell id="QTb41oFIG2-0rizOmiGW-32" value="" style="edgeStyle=orthogonalEdgeStyle;rounded=0;orthogonalLoop=1;jettySize=auto;html=1;" edge="1" parent="WIyWlLk6GJQsqaUBKTNV-1" source="QTb41oFIG2-0rizOmiGW-29" target="QTb41oFIG2-0rizOmiGW-31">
          <mxGeometry relative="1" as="geometry" />
        </mxCell>
        <mxCell id="QTb41oFIG2-0rizOmiGW-29" value="Menambah&lt;div&gt;tujuan User&lt;/div&gt;" style="rounded=1;whiteSpace=wrap;html=1;" vertex="1" parent="WIyWlLk6GJQsqaUBKTNV-1">
          <mxGeometry x="210" y="440" width="120" height="60" as="geometry" />
        </mxCell>
        <mxCell id="QTb41oFIG2-0rizOmiGW-33" style="edgeStyle=orthogonalEdgeStyle;rounded=0;orthogonalLoop=1;jettySize=auto;html=1;exitX=0.5;exitY=1;exitDx=0;exitDy=0;" edge="1" parent="WIyWlLk6GJQsqaUBKTNV-1" source="QTb41oFIG2-0rizOmiGW-31">
          <mxGeometry relative="1" as="geometry">
            <mxPoint x="270" y="870" as="targetPoint" />
          </mxGeometry>
        </mxCell>
        <mxCell id="QTb41oFIG2-0rizOmiGW-31" value="User berhasil Menambahkan&lt;div&gt;tujuan&lt;/div&gt;" style="whiteSpace=wrap;html=1;rounded=1;" vertex="1" parent="WIyWlLk6GJQsqaUBKTNV-1">
          <mxGeometry x="210" y="610" width="120" height="60" as="geometry" />
        </mxCell>
        <mxCell id="QTb41oFIG2-0rizOmiGW-39" style="edgeStyle=orthogonalEdgeStyle;rounded=0;orthogonalLoop=1;jettySize=auto;html=1;exitX=0.5;exitY=1;exitDx=0;exitDy=0;entryX=0.5;entryY=0;entryDx=0;entryDy=0;" edge="1" parent="WIyWlLk6GJQsqaUBKTNV-1" source="QTb41oFIG2-0rizOmiGW-34" target="QTb41oFIG2-0rizOmiGW-38">
          <mxGeometry relative="1" as="geometry" />
        </mxCell>
        <mxCell id="QTb41oFIG2-0rizOmiGW-34" value="Menampilkan Daftar&lt;div&gt;Tujuan User&lt;/div&gt;" style="rounded=1;whiteSpace=wrap;html=1;" vertex="1" parent="WIyWlLk6GJQsqaUBKTNV-1">
          <mxGeometry x="364" y="440" width="120" height="60" as="geometry" />
        </mxCell>
        <mxCell id="QTb41oFIG2-0rizOmiGW-41" value="" style="edgeStyle=orthogonalEdgeStyle;rounded=0;orthogonalLoop=1;jettySize=auto;html=1;" edge="1" parent="WIyWlLk6GJQsqaUBKTNV-1" source="QTb41oFIG2-0rizOmiGW-38" target="QTb41oFIG2-0rizOmiGW-40">
          <mxGeometry relative="1" as="geometry" />
        </mxCell>
        <mxCell id="QTb41oFIG2-0rizOmiGW-59" style="edgeStyle=orthogonalEdgeStyle;rounded=0;orthogonalLoop=1;jettySize=auto;html=1;exitX=1;exitY=0.5;exitDx=0;exitDy=0;entryX=1;entryY=0.5;entryDx=0;entryDy=0;" edge="1" parent="WIyWlLk6GJQsqaUBKTNV-1" source="QTb41oFIG2-0rizOmiGW-38" target="QTb41oFIG2-0rizOmiGW-46">
          <mxGeometry relative="1" as="geometry" />
        </mxCell>
        <mxCell id="QTb41oFIG2-0rizOmiGW-38" value="User Menandai&amp;nbsp;&lt;div&gt;Tugas Yang Telah&lt;/div&gt;&lt;div&gt;Selesai&lt;/div&gt;" style="shape=hexagon;perimeter=hexagonPerimeter2;whiteSpace=wrap;html=1;fixedSize=1;" vertex="1" parent="WIyWlLk6GJQsqaUBKTNV-1">
          <mxGeometry x="364" y="525" width="120" height="60" as="geometry" />
        </mxCell>
        <mxCell id="QTb41oFIG2-0rizOmiGW-44" value="" style="edgeStyle=orthogonalEdgeStyle;rounded=0;orthogonalLoop=1;jettySize=auto;html=1;" edge="1" parent="WIyWlLk6GJQsqaUBKTNV-1" source="QTb41oFIG2-0rizOmiGW-40" target="QTb41oFIG2-0rizOmiGW-43">
          <mxGeometry relative="1" as="geometry" />
        </mxCell>
        <mxCell id="QTb41oFIG2-0rizOmiGW-40" value="Update Status&lt;div&gt;Tujuan&lt;/div&gt;" style="rounded=1;whiteSpace=wrap;html=1;" vertex="1" parent="WIyWlLk6GJQsqaUBKTNV-1">
          <mxGeometry x="364" y="610" width="120" height="60" as="geometry" />
        </mxCell>
        <mxCell id="QTb41oFIG2-0rizOmiGW-47" style="edgeStyle=orthogonalEdgeStyle;rounded=0;orthogonalLoop=1;jettySize=auto;html=1;exitX=0.5;exitY=1;exitDx=0;exitDy=0;entryX=0.5;entryY=0;entryDx=0;entryDy=0;" edge="1" parent="WIyWlLk6GJQsqaUBKTNV-1" source="QTb41oFIG2-0rizOmiGW-43" target="QTb41oFIG2-0rizOmiGW-46">
          <mxGeometry relative="1" as="geometry" />
        </mxCell>
        <mxCell id="QTb41oFIG2-0rizOmiGW-43" value="User Mendapat&lt;div&gt;5 Point&lt;/div&gt;" style="rounded=1;whiteSpace=wrap;html=1;" vertex="1" parent="WIyWlLk6GJQsqaUBKTNV-1">
          <mxGeometry x="364" y="700" width="120" height="60" as="geometry" />
        </mxCell>
        <mxCell id="QTb41oFIG2-0rizOmiGW-53" style="edgeStyle=orthogonalEdgeStyle;rounded=0;orthogonalLoop=1;jettySize=auto;html=1;exitX=0.5;exitY=1;exitDx=0;exitDy=0;" edge="1" parent="WIyWlLk6GJQsqaUBKTNV-1" source="QTb41oFIG2-0rizOmiGW-46">
          <mxGeometry relative="1" as="geometry">
            <mxPoint x="427" y="870" as="targetPoint" />
          </mxGeometry>
        </mxCell>
        <mxCell id="QTb41oFIG2-0rizOmiGW-46" value="" style="rhombus;whiteSpace=wrap;html=1;" vertex="1" parent="WIyWlLk6GJQsqaUBKTNV-1">
          <mxGeometry x="399" y="790" width="56" height="40" as="geometry" />
        </mxCell>
        <mxCell id="QTb41oFIG2-0rizOmiGW-49" value="Ya" style="text;html=1;align=center;verticalAlign=middle;whiteSpace=wrap;rounded=0;" vertex="1" parent="WIyWlLk6GJQsqaUBKTNV-1">
          <mxGeometry x="414" y="580" width="60" height="30" as="geometry" />
        </mxCell>
        <mxCell id="QTb41oFIG2-0rizOmiGW-50" value="Tidak" style="text;html=1;align=center;verticalAlign=middle;whiteSpace=wrap;rounded=0;" vertex="1" parent="WIyWlLk6GJQsqaUBKTNV-1">
          <mxGeometry x="494" y="660" width="60" height="30" as="geometry" />
        </mxCell>
        <mxCell id="QTb41oFIG2-0rizOmiGW-63" value="" style="edgeStyle=orthogonalEdgeStyle;rounded=0;orthogonalLoop=1;jettySize=auto;html=1;" edge="1" parent="WIyWlLk6GJQsqaUBKTNV-1" source="QTb41oFIG2-0rizOmiGW-60" target="QTb41oFIG2-0rizOmiGW-62">
          <mxGeometry relative="1" as="geometry" />
        </mxCell>
        <mxCell id="QTb41oFIG2-0rizOmiGW-60" value="Menampilkan&lt;div&gt;Total Point User&lt;/div&gt;" style="rounded=1;whiteSpace=wrap;html=1;" vertex="1" parent="WIyWlLk6GJQsqaUBKTNV-1">
          <mxGeometry x="520" y="440" width="120" height="60" as="geometry" />
        </mxCell>
        <mxCell id="QTb41oFIG2-0rizOmiGW-66" value="" style="edgeStyle=orthogonalEdgeStyle;rounded=0;orthogonalLoop=1;jettySize=auto;html=1;" edge="1" parent="WIyWlLk6GJQsqaUBKTNV-1" source="QTb41oFIG2-0rizOmiGW-62" target="QTb41oFIG2-0rizOmiGW-65">
          <mxGeometry relative="1" as="geometry" />
        </mxCell>
        <mxCell id="QTb41oFIG2-0rizOmiGW-68" style="edgeStyle=orthogonalEdgeStyle;rounded=0;orthogonalLoop=1;jettySize=auto;html=1;exitX=1;exitY=0.5;exitDx=0;exitDy=0;entryX=1;entryY=0.5;entryDx=0;entryDy=0;" edge="1" parent="WIyWlLk6GJQsqaUBKTNV-1" source="QTb41oFIG2-0rizOmiGW-62" target="QTb41oFIG2-0rizOmiGW-67">
          <mxGeometry relative="1" as="geometry" />
        </mxCell>
        <mxCell id="QTb41oFIG2-0rizOmiGW-62" value="Jumlah Point &amp;gt;= 50" style="shape=hexagon;perimeter=hexagonPerimeter2;whiteSpace=wrap;html=1;fixedSize=1;" vertex="1" parent="WIyWlLk6GJQsqaUBKTNV-1">
          <mxGeometry x="520" y="525" width="120" height="35" as="geometry" />
        </mxCell>
        <mxCell id="QTb41oFIG2-0rizOmiGW-69" value="" style="edgeStyle=orthogonalEdgeStyle;rounded=0;orthogonalLoop=1;jettySize=auto;html=1;" edge="1" parent="WIyWlLk6GJQsqaUBKTNV-1" source="QTb41oFIG2-0rizOmiGW-65" target="QTb41oFIG2-0rizOmiGW-67">
          <mxGeometry relative="1" as="geometry" />
        </mxCell>
        <mxCell id="QTb41oFIG2-0rizOmiGW-65" value="User Mendapat&lt;div&gt;Penghargaan&lt;/div&gt;" style="rounded=1;whiteSpace=wrap;html=1;" vertex="1" parent="WIyWlLk6GJQsqaUBKTNV-1">
          <mxGeometry x="520" y="600" width="120" height="60" as="geometry" />
        </mxCell>
        <mxCell id="QTb41oFIG2-0rizOmiGW-70" style="edgeStyle=orthogonalEdgeStyle;rounded=0;orthogonalLoop=1;jettySize=auto;html=1;exitX=0.5;exitY=1;exitDx=0;exitDy=0;" edge="1" parent="WIyWlLk6GJQsqaUBKTNV-1" source="QTb41oFIG2-0rizOmiGW-67">
          <mxGeometry relative="1" as="geometry">
            <mxPoint x="580" y="870" as="targetPoint" />
          </mxGeometry>
        </mxCell>
        <mxCell id="QTb41oFIG2-0rizOmiGW-67" value="" style="rhombus;whiteSpace=wrap;html=1;" vertex="1" parent="WIyWlLk6GJQsqaUBKTNV-1">
          <mxGeometry x="545" y="700" width="70" height="60" as="geometry" />
        </mxCell>
        <mxCell id="QTb41oFIG2-0rizOmiGW-71" value="Ya" style="text;html=1;align=center;verticalAlign=middle;whiteSpace=wrap;rounded=0;" vertex="1" parent="WIyWlLk6GJQsqaUBKTNV-1">
          <mxGeometry x="560" y="565" width="60" height="30" as="geometry" />
        </mxCell>
        <mxCell id="QTb41oFIG2-0rizOmiGW-72" value="Tidak" style="text;html=1;align=center;verticalAlign=middle;whiteSpace=wrap;rounded=0;" vertex="1" parent="WIyWlLk6GJQsqaUBKTNV-1">
          <mxGeometry x="650" y="610" width="60" height="30" as="geometry" />
        </mxCell>
      </root>
    </mxGraphModel>
  </diagram>
</mxfile>
